# xmcd CD database file
#
# Track frame offsets:
#	150
#	20583
#	40132
#	60590
#
# Disc length: 1066 seconds
#
# Revision: 1
# Processed by: cddbd v1.5.2PL0 Copyright (c) Steve Scherf et al.
# Submitted via: CDex 1.51
#
DISCID=2b042804
DTITLE=Juice=Juice - Next is you!／カラダだけが大人になったんじゃない
DYEAR=2016
DGENRE=JPop
TTITLE0=Next is you! - NEXT YOU
TTITLE1=カラダだけが大人になったんじゃない
TTITLE2=Next is you! - NEXT YOU (Instrumental)
TTITLE3=カラダだけが大人になったんじゃない (Instrumental)
EXTD=YEAR: 2016
EXTT0=
EXTT1=
EXTT2=
EXTT3=
PLAYORDER=
